<mxfile host="app.diagrams.net" modified="2023-06-26T15:30:35.590Z" agent="Mozilla/5.0 (Windows NT 10.0; Win64; x64) AppleWebKit/537.36 (KHTML, like Gecko) Chrome/114.0.0.0 Safari/537.36 Edg/114.0.1823.58" etag="sjUnKeTcMKlr2BEe8BXu" version="21.5.0" type="device">
  <diagram name="Sayfa -1" id="A_ZSkeR089sd-2IDuZ1W">
    <mxGraphModel dx="1434" dy="788" grid="1" gridSize="10" guides="1" tooltips="1" connect="1" arrows="1" fold="1" page="1" pageScale="1" pageWidth="827" pageHeight="1169" math="0" shadow="0">
      <root>
        <mxCell id="0" />
        <mxCell id="1" parent="0" />
        <mxCell id="CjfYt7i7zeq4wVgMcTqh-3" value="" style="edgeStyle=orthogonalEdgeStyle;rounded=0;orthogonalLoop=1;jettySize=auto;html=1;" parent="1" source="CjfYt7i7zeq4wVgMcTqh-1" target="CjfYt7i7zeq4wVgMcTqh-2" edge="1">
          <mxGeometry relative="1" as="geometry" />
        </mxCell>
        <mxCell id="CjfYt7i7zeq4wVgMcTqh-7" value="" style="edgeStyle=orthogonalEdgeStyle;rounded=0;orthogonalLoop=1;jettySize=auto;html=1;" parent="1" source="CjfYt7i7zeq4wVgMcTqh-1" target="CjfYt7i7zeq4wVgMcTqh-6" edge="1">
          <mxGeometry relative="1" as="geometry" />
        </mxCell>
        <mxCell id="CjfYt7i7zeq4wVgMcTqh-1" value="Müşteriler" style="whiteSpace=wrap;html=1;align=center;" parent="1" vertex="1">
          <mxGeometry x="210" y="130" width="100" height="40" as="geometry" />
        </mxCell>
        <mxCell id="CjfYt7i7zeq4wVgMcTqh-5" value="" style="edgeStyle=orthogonalEdgeStyle;rounded=0;orthogonalLoop=1;jettySize=auto;html=1;" parent="1" source="CjfYt7i7zeq4wVgMcTqh-2" target="CjfYt7i7zeq4wVgMcTqh-4" edge="1">
          <mxGeometry relative="1" as="geometry" />
        </mxCell>
        <mxCell id="CjfYt7i7zeq4wVgMcTqh-2" value="öder" style="rhombus;whiteSpace=wrap;html=1;" parent="1" vertex="1">
          <mxGeometry x="220" y="230" width="80" height="80" as="geometry" />
        </mxCell>
        <mxCell id="CjfYt7i7zeq4wVgMcTqh-4" value="Ödeme" style="whiteSpace=wrap;html=1;" parent="1" vertex="1">
          <mxGeometry x="200" y="400" width="120" height="60" as="geometry" />
        </mxCell>
        <mxCell id="CjfYt7i7zeq4wVgMcTqh-9" value="" style="edgeStyle=orthogonalEdgeStyle;rounded=0;orthogonalLoop=1;jettySize=auto;html=1;" parent="1" source="CjfYt7i7zeq4wVgMcTqh-6" target="CjfYt7i7zeq4wVgMcTqh-8" edge="1">
          <mxGeometry relative="1" as="geometry" />
        </mxCell>
        <mxCell id="CjfYt7i7zeq4wVgMcTqh-6" value="alır" style="rhombus;whiteSpace=wrap;html=1;" parent="1" vertex="1">
          <mxGeometry x="400" y="110" width="80" height="80" as="geometry" />
        </mxCell>
        <mxCell id="CjfYt7i7zeq4wVgMcTqh-11" value="" style="edgeStyle=orthogonalEdgeStyle;rounded=0;orthogonalLoop=1;jettySize=auto;html=1;" parent="1" source="CjfYt7i7zeq4wVgMcTqh-8" target="CjfYt7i7zeq4wVgMcTqh-10" edge="1">
          <mxGeometry relative="1" as="geometry" />
        </mxCell>
        <mxCell id="CjfYt7i7zeq4wVgMcTqh-8" value="satış" style="whiteSpace=wrap;html=1;" parent="1" vertex="1">
          <mxGeometry x="540" y="120" width="120" height="60" as="geometry" />
        </mxCell>
        <mxCell id="CjfYt7i7zeq4wVgMcTqh-13" value="" style="edgeStyle=orthogonalEdgeStyle;rounded=0;orthogonalLoop=1;jettySize=auto;html=1;" parent="1" source="CjfYt7i7zeq4wVgMcTqh-10" target="CjfYt7i7zeq4wVgMcTqh-12" edge="1">
          <mxGeometry relative="1" as="geometry" />
        </mxCell>
        <mxCell id="CjfYt7i7zeq4wVgMcTqh-10" value="satış" style="rhombus;whiteSpace=wrap;html=1;" parent="1" vertex="1">
          <mxGeometry x="560" y="250" width="80" height="80" as="geometry" />
        </mxCell>
        <mxCell id="CjfYt7i7zeq4wVgMcTqh-12" value="ürünler" style="whiteSpace=wrap;html=1;" parent="1" vertex="1">
          <mxGeometry x="540" y="420" width="120" height="60" as="geometry" />
        </mxCell>
        <mxCell id="CjfYt7i7zeq4wVgMcTqh-15" value="&lt;span style=&quot;border-bottom: 1px dotted&quot;&gt;Müşteri ID&lt;/span&gt;" style="ellipse;whiteSpace=wrap;html=1;align=center;" parent="1" vertex="1">
          <mxGeometry x="70" y="130" width="100" height="40" as="geometry" />
        </mxCell>
        <mxCell id="CjfYt7i7zeq4wVgMcTqh-19" value="Ad" style="ellipse;whiteSpace=wrap;html=1;align=center;" parent="1" vertex="1">
          <mxGeometry x="70" y="60" width="100" height="40" as="geometry" />
        </mxCell>
        <mxCell id="CjfYt7i7zeq4wVgMcTqh-20" value="Soyad" style="ellipse;whiteSpace=wrap;html=1;align=center;" parent="1" vertex="1">
          <mxGeometry x="210" y="60" width="100" height="40" as="geometry" />
        </mxCell>
        <mxCell id="CjfYt7i7zeq4wVgMcTqh-21" value="Telefon" style="ellipse;whiteSpace=wrap;html=1;align=center;" parent="1" vertex="1">
          <mxGeometry x="340" y="60" width="100" height="40" as="geometry" />
        </mxCell>
        <mxCell id="CjfYt7i7zeq4wVgMcTqh-22" value="Mail" style="ellipse;whiteSpace=wrap;html=1;align=center;" parent="1" vertex="1">
          <mxGeometry x="70" y="190" width="100" height="40" as="geometry" />
        </mxCell>
        <mxCell id="CjfYt7i7zeq4wVgMcTqh-23" value="Adres" style="ellipse;whiteSpace=wrap;html=1;align=center;" parent="1" vertex="1">
          <mxGeometry x="70" y="260" width="100" height="40" as="geometry" />
        </mxCell>
        <mxCell id="CjfYt7i7zeq4wVgMcTqh-27" value="" style="endArrow=none;html=1;rounded=0;exitX=0;exitY=0.5;exitDx=0;exitDy=0;" parent="1" source="CjfYt7i7zeq4wVgMcTqh-1" target="CjfYt7i7zeq4wVgMcTqh-15" edge="1">
          <mxGeometry width="50" height="50" relative="1" as="geometry">
            <mxPoint x="390" y="430" as="sourcePoint" />
            <mxPoint x="440" y="380" as="targetPoint" />
          </mxGeometry>
        </mxCell>
        <mxCell id="CjfYt7i7zeq4wVgMcTqh-28" value="" style="endArrow=none;html=1;rounded=0;exitX=1;exitY=0.5;exitDx=0;exitDy=0;entryX=0.18;entryY=1.075;entryDx=0;entryDy=0;entryPerimeter=0;" parent="1" source="CjfYt7i7zeq4wVgMcTqh-22" target="CjfYt7i7zeq4wVgMcTqh-1" edge="1">
          <mxGeometry width="50" height="50" relative="1" as="geometry">
            <mxPoint x="390" y="430" as="sourcePoint" />
            <mxPoint x="440" y="380" as="targetPoint" />
          </mxGeometry>
        </mxCell>
        <mxCell id="CjfYt7i7zeq4wVgMcTqh-29" value="" style="endArrow=none;html=1;rounded=0;exitX=1;exitY=0.5;exitDx=0;exitDy=0;" parent="1" source="CjfYt7i7zeq4wVgMcTqh-23" target="CjfYt7i7zeq4wVgMcTqh-1" edge="1">
          <mxGeometry width="50" height="50" relative="1" as="geometry">
            <mxPoint x="390" y="430" as="sourcePoint" />
            <mxPoint x="440" y="380" as="targetPoint" />
          </mxGeometry>
        </mxCell>
        <mxCell id="CjfYt7i7zeq4wVgMcTqh-30" value="" style="endArrow=none;html=1;rounded=0;exitX=1;exitY=0.5;exitDx=0;exitDy=0;entryX=0;entryY=0;entryDx=0;entryDy=0;" parent="1" source="CjfYt7i7zeq4wVgMcTqh-19" target="CjfYt7i7zeq4wVgMcTqh-1" edge="1">
          <mxGeometry width="50" height="50" relative="1" as="geometry">
            <mxPoint x="390" y="430" as="sourcePoint" />
            <mxPoint x="440" y="380" as="targetPoint" />
          </mxGeometry>
        </mxCell>
        <mxCell id="CjfYt7i7zeq4wVgMcTqh-31" value="" style="endArrow=none;html=1;rounded=0;exitX=0.58;exitY=0.95;exitDx=0;exitDy=0;exitPerimeter=0;entryX=0.63;entryY=-0.025;entryDx=0;entryDy=0;entryPerimeter=0;" parent="1" source="CjfYt7i7zeq4wVgMcTqh-20" target="CjfYt7i7zeq4wVgMcTqh-1" edge="1">
          <mxGeometry width="50" height="50" relative="1" as="geometry">
            <mxPoint x="390" y="430" as="sourcePoint" />
            <mxPoint x="440" y="380" as="targetPoint" />
          </mxGeometry>
        </mxCell>
        <mxCell id="CjfYt7i7zeq4wVgMcTqh-32" value="" style="endArrow=none;html=1;rounded=0;exitX=0.22;exitY=0.925;exitDx=0;exitDy=0;exitPerimeter=0;entryX=1;entryY=0;entryDx=0;entryDy=0;" parent="1" source="CjfYt7i7zeq4wVgMcTqh-21" target="CjfYt7i7zeq4wVgMcTqh-1" edge="1">
          <mxGeometry width="50" height="50" relative="1" as="geometry">
            <mxPoint x="390" y="430" as="sourcePoint" />
            <mxPoint x="440" y="380" as="targetPoint" />
          </mxGeometry>
        </mxCell>
        <mxCell id="CjfYt7i7zeq4wVgMcTqh-33" value="Ödeme Türü" style="ellipse;whiteSpace=wrap;html=1;align=center;" parent="1" vertex="1">
          <mxGeometry x="60" y="400" width="100" height="40" as="geometry" />
        </mxCell>
        <mxCell id="CjfYt7i7zeq4wVgMcTqh-34" value="" style="endArrow=none;html=1;rounded=0;exitX=1;exitY=0.5;exitDx=0;exitDy=0;entryX=0;entryY=0.25;entryDx=0;entryDy=0;" parent="1" source="CjfYt7i7zeq4wVgMcTqh-33" target="CjfYt7i7zeq4wVgMcTqh-4" edge="1">
          <mxGeometry width="50" height="50" relative="1" as="geometry">
            <mxPoint x="380" y="570" as="sourcePoint" />
            <mxPoint x="236" y="310" as="targetPoint" />
          </mxGeometry>
        </mxCell>
        <mxCell id="CjfYt7i7zeq4wVgMcTqh-35" value="Tutar" style="ellipse;whiteSpace=wrap;html=1;align=center;" parent="1" vertex="1">
          <mxGeometry x="60" y="470" width="100" height="40" as="geometry" />
        </mxCell>
        <mxCell id="CjfYt7i7zeq4wVgMcTqh-36" value="" style="endArrow=none;html=1;rounded=0;exitX=0.74;exitY=0;exitDx=0;exitDy=0;entryX=-0.025;entryY=0.883;entryDx=0;entryDy=0;entryPerimeter=0;exitPerimeter=0;" parent="1" source="CjfYt7i7zeq4wVgMcTqh-35" target="CjfYt7i7zeq4wVgMcTqh-4" edge="1">
          <mxGeometry width="50" height="50" relative="1" as="geometry">
            <mxPoint x="380" y="645" as="sourcePoint" />
            <mxPoint x="236" y="385" as="targetPoint" />
          </mxGeometry>
        </mxCell>
        <mxCell id="CjfYt7i7zeq4wVgMcTqh-37" value="İşlem Tarihi" style="ellipse;whiteSpace=wrap;html=1;align=center;" parent="1" vertex="1">
          <mxGeometry x="190" y="540" width="100" height="40" as="geometry" />
        </mxCell>
        <mxCell id="CjfYt7i7zeq4wVgMcTqh-38" value="" style="endArrow=none;html=1;rounded=0;exitX=0.5;exitY=0;exitDx=0;exitDy=0;entryX=0.5;entryY=1;entryDx=0;entryDy=0;" parent="1" source="CjfYt7i7zeq4wVgMcTqh-37" target="CjfYt7i7zeq4wVgMcTqh-4" edge="1">
          <mxGeometry width="50" height="50" relative="1" as="geometry">
            <mxPoint x="530" y="660" as="sourcePoint" />
            <mxPoint x="386" y="400" as="targetPoint" />
          </mxGeometry>
        </mxCell>
        <mxCell id="CjfYt7i7zeq4wVgMcTqh-40" value="" style="endArrow=none;html=1;rounded=0;exitX=0.5;exitY=1;exitDx=0;exitDy=0;entryX=0.5;entryY=0;entryDx=0;entryDy=0;" parent="1" target="CjfYt7i7zeq4wVgMcTqh-8" edge="1">
          <mxGeometry width="50" height="50" relative="1" as="geometry">
            <mxPoint x="600" y="85" as="sourcePoint" />
            <mxPoint x="520" y="115" as="targetPoint" />
          </mxGeometry>
        </mxCell>
        <mxCell id="CjfYt7i7zeq4wVgMcTqh-41" value="Ödeme Tarihi" style="ellipse;whiteSpace=wrap;html=1;align=center;" parent="1" vertex="1">
          <mxGeometry x="680" y="45" width="100" height="40" as="geometry" />
        </mxCell>
        <mxCell id="CjfYt7i7zeq4wVgMcTqh-42" value="" style="endArrow=none;html=1;rounded=0;exitX=0.22;exitY=0.925;exitDx=0;exitDy=0;exitPerimeter=0;entryX=1;entryY=0;entryDx=0;entryDy=0;" parent="1" source="CjfYt7i7zeq4wVgMcTqh-41" target="CjfYt7i7zeq4wVgMcTqh-8" edge="1">
          <mxGeometry width="50" height="50" relative="1" as="geometry">
            <mxPoint x="730" y="415" as="sourcePoint" />
            <mxPoint x="650" y="115" as="targetPoint" />
          </mxGeometry>
        </mxCell>
        <mxCell id="CjfYt7i7zeq4wVgMcTqh-43" value="Ödeme Tutarı" style="ellipse;whiteSpace=wrap;html=1;align=center;" parent="1" vertex="1">
          <mxGeometry x="695" y="130" width="100" height="40" as="geometry" />
        </mxCell>
        <mxCell id="CjfYt7i7zeq4wVgMcTqh-44" value="" style="endArrow=none;html=1;rounded=0;exitX=0;exitY=0.5;exitDx=0;exitDy=0;entryX=1;entryY=0.5;entryDx=0;entryDy=0;" parent="1" source="CjfYt7i7zeq4wVgMcTqh-43" target="CjfYt7i7zeq4wVgMcTqh-8" edge="1">
          <mxGeometry width="50" height="50" relative="1" as="geometry">
            <mxPoint x="745" y="500" as="sourcePoint" />
            <mxPoint x="665" y="200" as="targetPoint" />
          </mxGeometry>
        </mxCell>
        <mxCell id="CjfYt7i7zeq4wVgMcTqh-45" value="Ödeme Türü" style="ellipse;whiteSpace=wrap;html=1;align=center;" parent="1" vertex="1">
          <mxGeometry x="700" y="220" width="100" height="40" as="geometry" />
        </mxCell>
        <mxCell id="CjfYt7i7zeq4wVgMcTqh-46" value="" style="endArrow=none;html=1;rounded=0;exitX=0;exitY=0;exitDx=0;exitDy=0;entryX=1;entryY=1;entryDx=0;entryDy=0;" parent="1" source="CjfYt7i7zeq4wVgMcTqh-45" target="CjfYt7i7zeq4wVgMcTqh-8" edge="1">
          <mxGeometry width="50" height="50" relative="1" as="geometry">
            <mxPoint x="750" y="590" as="sourcePoint" />
            <mxPoint x="670" y="290" as="targetPoint" />
          </mxGeometry>
        </mxCell>
        <mxCell id="CjfYt7i7zeq4wVgMcTqh-47" value="Açıklama" style="ellipse;whiteSpace=wrap;html=1;align=center;" parent="1" vertex="1">
          <mxGeometry x="700" y="290" width="100" height="40" as="geometry" />
        </mxCell>
        <mxCell id="CjfYt7i7zeq4wVgMcTqh-48" value="" style="endArrow=none;html=1;rounded=0;exitX=0;exitY=0;exitDx=0;exitDy=0;entryX=0.692;entryY=1.017;entryDx=0;entryDy=0;entryPerimeter=0;" parent="1" source="CjfYt7i7zeq4wVgMcTqh-47" target="CjfYt7i7zeq4wVgMcTqh-8" edge="1">
          <mxGeometry width="50" height="50" relative="1" as="geometry">
            <mxPoint x="750" y="660" as="sourcePoint" />
            <mxPoint x="670" y="360" as="targetPoint" />
          </mxGeometry>
        </mxCell>
        <mxCell id="CjfYt7i7zeq4wVgMcTqh-50" value="" style="endArrow=none;html=1;rounded=0;exitX=0;exitY=0.5;exitDx=0;exitDy=0;entryX=1;entryY=0.9;entryDx=0;entryDy=0;entryPerimeter=0;" parent="1" target="CjfYt7i7zeq4wVgMcTqh-12" edge="1">
          <mxGeometry width="50" height="50" relative="1" as="geometry">
            <mxPoint x="700" y="460" as="sourcePoint" />
            <mxPoint x="670" y="510" as="targetPoint" />
          </mxGeometry>
        </mxCell>
        <mxCell id="CjfYt7i7zeq4wVgMcTqh-51" value="Ürün Adı" style="ellipse;whiteSpace=wrap;html=1;align=center;" parent="1" vertex="1">
          <mxGeometry x="700" y="510" width="100" height="40" as="geometry" />
        </mxCell>
        <mxCell id="CjfYt7i7zeq4wVgMcTqh-52" value="" style="endArrow=none;html=1;rounded=0;exitX=0;exitY=0.5;exitDx=0;exitDy=0;entryX=1;entryY=1;entryDx=0;entryDy=0;" parent="1" source="CjfYt7i7zeq4wVgMcTqh-51" target="CjfYt7i7zeq4wVgMcTqh-12" edge="1">
          <mxGeometry width="50" height="50" relative="1" as="geometry">
            <mxPoint x="750" y="880" as="sourcePoint" />
            <mxPoint x="660" y="544" as="targetPoint" />
          </mxGeometry>
        </mxCell>
        <mxCell id="CjfYt7i7zeq4wVgMcTqh-53" value="Kategori" style="ellipse;whiteSpace=wrap;html=1;align=center;" parent="1" vertex="1">
          <mxGeometry x="560" y="510" width="100" height="40" as="geometry" />
        </mxCell>
        <mxCell id="CjfYt7i7zeq4wVgMcTqh-54" value="" style="endArrow=none;html=1;rounded=0;entryX=0.5;entryY=1;entryDx=0;entryDy=0;" parent="1" source="CjfYt7i7zeq4wVgMcTqh-53" target="CjfYt7i7zeq4wVgMcTqh-12" edge="1">
          <mxGeometry width="50" height="50" relative="1" as="geometry">
            <mxPoint x="610" y="880" as="sourcePoint" />
            <mxPoint x="520" y="544" as="targetPoint" />
          </mxGeometry>
        </mxCell>
        <mxCell id="CjfYt7i7zeq4wVgMcTqh-55" value="Birim" style="ellipse;whiteSpace=wrap;html=1;align=center;" parent="1" vertex="1">
          <mxGeometry x="420" y="510" width="100" height="40" as="geometry" />
        </mxCell>
        <mxCell id="CjfYt7i7zeq4wVgMcTqh-56" value="" style="endArrow=none;html=1;rounded=0;exitX=0.74;exitY=0.05;exitDx=0;exitDy=0;entryX=0.158;entryY=1.017;entryDx=0;entryDy=0;entryPerimeter=0;exitPerimeter=0;" parent="1" source="CjfYt7i7zeq4wVgMcTqh-55" target="CjfYt7i7zeq4wVgMcTqh-12" edge="1">
          <mxGeometry width="50" height="50" relative="1" as="geometry">
            <mxPoint x="480" y="880" as="sourcePoint" />
            <mxPoint x="390" y="544" as="targetPoint" />
          </mxGeometry>
        </mxCell>
        <mxCell id="CjfYt7i7zeq4wVgMcTqh-57" value="Fiyat" style="ellipse;whiteSpace=wrap;html=1;align=center;" parent="1" vertex="1">
          <mxGeometry x="420" y="440" width="100" height="40" as="geometry" />
        </mxCell>
        <mxCell id="CjfYt7i7zeq4wVgMcTqh-58" value="" style="endArrow=none;html=1;rounded=0;exitX=1;exitY=0.5;exitDx=0;exitDy=0;" parent="1" source="CjfYt7i7zeq4wVgMcTqh-57" target="CjfYt7i7zeq4wVgMcTqh-12" edge="1">
          <mxGeometry width="50" height="50" relative="1" as="geometry">
            <mxPoint x="470" y="810" as="sourcePoint" />
            <mxPoint x="380" y="474" as="targetPoint" />
          </mxGeometry>
        </mxCell>
        <mxCell id="CjfYt7i7zeq4wVgMcTqh-59" value="Detay" style="ellipse;whiteSpace=wrap;html=1;align=center;" parent="1" vertex="1">
          <mxGeometry x="420" y="380" width="100" height="40" as="geometry" />
        </mxCell>
        <mxCell id="CjfYt7i7zeq4wVgMcTqh-60" value="" style="endArrow=none;html=1;rounded=0;exitX=1;exitY=0.5;exitDx=0;exitDy=0;entryX=0;entryY=0;entryDx=0;entryDy=0;" parent="1" source="CjfYt7i7zeq4wVgMcTqh-59" target="CjfYt7i7zeq4wVgMcTqh-12" edge="1">
          <mxGeometry width="50" height="50" relative="1" as="geometry">
            <mxPoint x="470" y="750" as="sourcePoint" />
            <mxPoint x="540" y="398" as="targetPoint" />
          </mxGeometry>
        </mxCell>
        <mxCell id="CjfYt7i7zeq4wVgMcTqh-61" value="Stok Miktarı" style="ellipse;whiteSpace=wrap;html=1;align=center;" parent="1" vertex="1">
          <mxGeometry x="700" y="380" width="100" height="40" as="geometry" />
        </mxCell>
        <mxCell id="CjfYt7i7zeq4wVgMcTqh-63" value="" style="endArrow=none;html=1;rounded=0;exitX=1;exitY=0;exitDx=0;exitDy=0;entryX=0;entryY=0.5;entryDx=0;entryDy=0;" parent="1" source="CjfYt7i7zeq4wVgMcTqh-12" target="CjfYt7i7zeq4wVgMcTqh-61" edge="1">
          <mxGeometry width="50" height="50" relative="1" as="geometry">
            <mxPoint x="390" y="430" as="sourcePoint" />
            <mxPoint x="440" y="380" as="targetPoint" />
          </mxGeometry>
        </mxCell>
        <mxCell id="CjfYt7i7zeq4wVgMcTqh-64" value="&lt;span style=&quot;border-bottom: 1px dotted&quot;&gt;Ürün ID&lt;/span&gt;" style="ellipse;whiteSpace=wrap;html=1;align=center;" parent="1" vertex="1">
          <mxGeometry x="700" y="440" width="100" height="40" as="geometry" />
        </mxCell>
        <mxCell id="CjfYt7i7zeq4wVgMcTqh-65" value="&lt;span style=&quot;border-bottom: 1px dotted&quot;&gt;Ödeme ID&lt;/span&gt;" style="ellipse;whiteSpace=wrap;html=1;align=center;" parent="1" vertex="1">
          <mxGeometry x="550" y="45" width="100" height="40" as="geometry" />
        </mxCell>
        <mxCell id="CjfYt7i7zeq4wVgMcTqh-66" value="1" style="text;html=1;strokeColor=none;fillColor=none;align=center;verticalAlign=middle;whiteSpace=wrap;rounded=0;" parent="1" vertex="1">
          <mxGeometry x="260" y="170" width="60" height="30" as="geometry" />
        </mxCell>
        <mxCell id="CjfYt7i7zeq4wVgMcTqh-67" value="N" style="text;html=1;strokeColor=none;fillColor=none;align=center;verticalAlign=middle;whiteSpace=wrap;rounded=0;" parent="1" vertex="1">
          <mxGeometry x="260" y="360" width="60" height="30" as="geometry" />
        </mxCell>
        <mxCell id="CjfYt7i7zeq4wVgMcTqh-68" value="1" style="text;html=1;strokeColor=none;fillColor=none;align=center;verticalAlign=middle;whiteSpace=wrap;rounded=0;" parent="1" vertex="1">
          <mxGeometry x="310" y="150" width="60" height="30" as="geometry" />
        </mxCell>
        <mxCell id="CjfYt7i7zeq4wVgMcTqh-69" value="N" style="text;html=1;strokeColor=none;fillColor=none;align=center;verticalAlign=middle;whiteSpace=wrap;rounded=0;" parent="1" vertex="1">
          <mxGeometry x="490" y="150" width="60" height="30" as="geometry" />
        </mxCell>
        <mxCell id="CjfYt7i7zeq4wVgMcTqh-70" value="N" style="text;html=1;strokeColor=none;fillColor=none;align=center;verticalAlign=middle;whiteSpace=wrap;rounded=0;" parent="1" vertex="1">
          <mxGeometry x="550" y="180" width="60" height="30" as="geometry" />
        </mxCell>
        <mxCell id="CjfYt7i7zeq4wVgMcTqh-71" value="1" style="text;html=1;strokeColor=none;fillColor=none;align=center;verticalAlign=middle;whiteSpace=wrap;rounded=0;" parent="1" vertex="1">
          <mxGeometry x="550" y="385" width="60" height="30" as="geometry" />
        </mxCell>
        <mxCell id="MM7NYzDbKXA_JxNgUTeQ-1" value="Açıklama" style="ellipse;whiteSpace=wrap;html=1;align=center;" vertex="1" parent="1">
          <mxGeometry x="310" y="540" width="100" height="40" as="geometry" />
        </mxCell>
        <mxCell id="MM7NYzDbKXA_JxNgUTeQ-2" value="" style="endArrow=none;html=1;rounded=0;exitX=0.5;exitY=0;exitDx=0;exitDy=0;entryX=1;entryY=1;entryDx=0;entryDy=0;" edge="1" parent="1" source="MM7NYzDbKXA_JxNgUTeQ-1" target="CjfYt7i7zeq4wVgMcTqh-4">
          <mxGeometry width="50" height="50" relative="1" as="geometry">
            <mxPoint x="620" y="720" as="sourcePoint" />
            <mxPoint x="350" y="520" as="targetPoint" />
          </mxGeometry>
        </mxCell>
        <mxCell id="MM7NYzDbKXA_JxNgUTeQ-3" value="Ödeme ID" style="ellipse;whiteSpace=wrap;html=1;align=center;" vertex="1" parent="1">
          <mxGeometry x="60" y="540" width="100" height="40" as="geometry" />
        </mxCell>
        <mxCell id="MM7NYzDbKXA_JxNgUTeQ-4" value="" style="endArrow=none;html=1;rounded=0;exitX=0.5;exitY=0;exitDx=0;exitDy=0;entryX=0.1;entryY=1.067;entryDx=0;entryDy=0;entryPerimeter=0;" edge="1" parent="1" source="MM7NYzDbKXA_JxNgUTeQ-3" target="CjfYt7i7zeq4wVgMcTqh-4">
          <mxGeometry width="50" height="50" relative="1" as="geometry">
            <mxPoint x="400" y="745" as="sourcePoint" />
            <mxPoint x="130" y="545" as="targetPoint" />
          </mxGeometry>
        </mxCell>
      </root>
    </mxGraphModel>
  </diagram>
</mxfile>
